#!OML:ASF H:\MichaelJackson\Top Level 1\Subject 1\Session 1\male.ASF
:FULLY-SPECIFIED
:DEGREES
896
root 2.19818 16.7895 19.9142 -177.854 128.278 174.077
lowerback -3.28895 3.62729 0.0149284
upperback -1.83693 4.85698 -1.78003
thorax 0.109851 2.42989 -1.66507
lowerneck -4.52393 -7.46081 0.47516
upperneck 0.0586789 -10.0241 4.25858
head 0.971687 -4.94269 1.0037
rclavicle -9.05961e-014 -5.56597e-015
rhumerus -41.7027 46.6634 -123.737
rradius 97.7477
rwrist 2.0509
rhand -16.8952 -18.417
rfingers 7.12502
rthumb 9.33648 311.81
lclavicle -9.05961e-014 -5.56597e-015
lhumerus -58.8856 -18.135 104.397
lradius 79.649
lwrist 18.9358
lhand 10.8629 12.5083
lfingers 7.12502
lthumb 35.9444 38.8385
rfemur -12.159 -16.5702 18.4916
rtibia 37.5475
rfoot -16.8231 -30.3202
rtoes -14.051
lfemur -24.4974 3.55132 -9.49173
ltibia 51.0701
lfoot -20.0233 24.7325
ltoes 4.62517
897
root 2.16558 16.7968 20.0081 -177.357 130.358 174.316
lowerback -3.31764 3.54135 0.166778
upperback -1.88782 4.7368 -1.68908
thorax 0.0746543 2.36858 -1.66088
lowerneck -4.58504 -7.34022 0.523441
upperneck -0.0608582 -9.86161 4.2686
head 0.939226 -4.86279 1.0035
rclavicle 4.19933e-014 -7.95139e-016
rhumerus -41.9791 46.5164 -123.873
rradius 97.5221
rwrist 2.13025
rhand -16.6363 -18.5245
rfingers 7.12502
rthumb 9.58625 311.714
lclavicle 4.19933e-014 -7.95139e-016
lhumerus -58.8888 -17.9855 103.775
lradius 79.4311
lwrist 19.1993
lhand 9.7412 11.8516
lfingers 7.12502
lthumb 34.8808 38.4354
rfemur -11.9387 -15.7666 18.6855
rtibia 36.3719
rfoot -17.248 -29.3074
rtoes -13.4458
lfemur -24.8318 3.23655 -8.98879
ltibia 52.2668
lfoot -19.1139 24.575
ltoes 6.21991
898
root 2.13286 16.8042 20.0998 -176.907 132.36 174.5
lowerback -3.28465 3.47548 0.340773
upperback -1.92879 4.64256 -1.59615
thorax 0.0174161 2.31993 -1.66973
lowerneck -4.63974 -7.23375 0.539307
upperneck -0.258321 -9.713 4.29535
head 0.884222 -4.79111 1.01503
rclavicle 4.24902e-014 6.36111e-015
rhumerus -42.2665 46.3677 -123.938
rradius 97.3354
rwrist 2.2059
rhand -16.417 -18.5871
rfingers 7.12502
rthumb 9.79784 311.661
lclavicle 4.24902e-014 6.36111e-015
lhumerus -58.8092 -17.8311 103.137
lradius 79.1057
lwrist 19.3912
lhand 8.61918 11.2057
lfingers 7.12502
lthumb 33.8155 38.0302
rfemur -11.6979 -14.9601 18.8897
rtibia 35.1867
rfoot -17.6594 -28.3319
rtoes -12.5958
lfemur -25.2943 3.1387 -8.54624
ltibia 53.5737
lfoot -18.1189 23.9874
ltoes 8.69037
899
root 2.10125 16.8115 20.19 -176.543 134.327 174.614
lowerback -3.17866 3.45024 0.558435
upperback -1.95268 4.60154 -1.50248
thorax -0.0581751 2.29738 -1.70412
lowerneck -4.67268 -7.14406 0.53682
upperneck -0.535375 -9.58209 4.34014
head 0.802994 -4.72971 1.03695
rclavicle -1.49089e-014 -1.66979e-014
rhumerus -42.5364 46.2005 -123.922
rradius 97.1704
rwrist 2.28646
rhand -16.2411 -18.5983
rfingers 7.12502
rthumb 9.96759 311.658
lclavicle -1.49089e-014 -1.66979e-014
lhumerus -58.6626 -17.6812 102.484
lradius 78.6719
lwrist 19.5018
lhand 7.44005 10.5692
lfingers 7.12502
lthumb 32.6945 37.6333
rfemur -11.4188 -14.1214 19.1034
rtibia 34.0239
rfoot -18.0195 -27.3659
rtoes -11.707
lfemur -25.8132 3.28488 -8.14497
ltibia 54.9335
lfoot -17.1203 22.9107
ltoes 11.6571
900
root 2.07191 16.8188 20.278 -176.259 136.275 174.666
lowerback -3.01226 3.47168 0.824109
upperback -1.95152 4.62245 -1.40846
thorax -0.136009 2.3053 -1.76552
lowerneck -4.68386 -7.0691 0.530761
upperneck -0.882306 -9.46706 4.39009
head 0.697193 -4.67767 1.06278
rclavicle -4.42296e-014 -1.59028e-015
rhumerus -42.7491 46.0244 -123.795
rradius 97.0027
rwrist 2.37335
rhand -16.0968 -18.5705
rfingers 7.12502
rthumb 10.1068 311.692
lclavicle -4.42296e-014 -1.59028e-015
lhumerus -58.4285 -17.5175 101.82
lradius 78.111
lwrist 19.5241
lhand 6.20407 9.98993
lfingers 7.12502
lthumb 31.5178 37.2914
rfemur -11.1131 -13.2794 19.3103
rtibia 32.9221
rfoot -18.3059 -26.3662
rtoes -10.941
lfemur -26.35 3.67003 -7.7926
ltibia 56.286
lfoot -16.21 21.3396
ltoes 14.6731
